<?xml version="1.0" encoding="utf-8"?>
<!-- Generator: Adobe Illustrator 22.1.0, SVG Export Plug-In . SVG Version: 6.00 Build 0)  -->
<svg version="1.1" id="Camada_1" xmlns="http://www.w3.org/2000/svg" xmlns:xlink="http://www.w3.org/1999/xlink" x="0px" y="0px"
	 viewBox="0 0 841.9 595.3" style="enable-background:new 0 0 841.9 595.3;" xml:space="preserve">
<path d="M525.9,365.3c-7.8-19.8-16.4-39.4-25.1-58.9c-15.7-35.2-31.2-70.3-34.1-109.5c-0.4-5.9-0.4-11.2,6.5-13.8
	c3.9-1.4,6.5-4.6,5.8-9.1c-0.6-4-4.3-5.8-7.4-6.5c-19.3-4-38.8-3.9-58.2-1c-3.9,0.6-7.3,3.2-8.3,7.2c-1.1,4.5,1.4,7.7,5.4,9.2
	c6.8,2.5,7.8,7.9,7.2,13.7c-1,9.8-2,19.6-4.4,29.1c-8.8,35.1-25,67.4-37.9,100.9c-6.4,16.7-18.5,31.3-18.1,50.5
	c0.2,10,3.5,15.2,14.6,15c23-0.5,46-0.2,69.1-0.2c22.2,0,44.3,0.1,66.5,0C528.1,391.8,533.5,384.5,525.9,365.3z M483.2,341.5
	c-0.9,13.3-9.7,25.5-19,24.1c-5.3-0.8-8.9-0.3-13,2.5c-1.7,1.2-4.2,2.1-6.1,1.7c-10.4-2-21.3-2.9-30.8-6.9
	c-15.6-6.6-17.1-32.7-2.6-43.6c5.7-4.3,9.9-6.7,3-13.2c-1.4-1.3-2.5-3.9-0.2-5.7c2.2-1.7,3.8,0.1,5.6,1.3c9.7,6.5,16.2,6.3,16.1-7.8
	c0-4.5,2.6-7.5,7.6-6.5c4.7,1,3,4.4,2.1,7.2c-1.4,4.2-3.2,9.3,1.1,11.9c4.8,3,7.2-2.9,10.3-5.4c2.6-2.1,4.5-5.7,8.5-3.1
	c1.2,4-2.4,5.4-3.7,7.9c-2.8,5.2-3.9,8.5,4.6,8.6C475.9,314.8,484,329,483.2,341.5z"/>
</svg>
